<svg width="100" height="100" viewBox="0 0 100 100" fill="none" xmlns="http://www.w3.org/2000/svg">
<g clip-path="url(#clip0_1_27)">
<circle cx="50" cy="50" r="50" fill="#72B62B"/>
<path d="M38.5405 49.6546C42.1995 51.8283 43.1143 55.2701 43.6631 59.2553C44.5779 65.2331 45.8586 71.0298 46.7733 76.8265C46.9563 78.0945 47.3222 78.4568 48.6028 78.2757C48.7858 78.4568 48.7858 78.4568 48.7858 78.638C48.7858 78.8191 48.7858 78.8191 48.6028 78.8191C40.37 81.174 32.686 80.0871 25.7339 74.8339C24.6361 74.1093 23.7214 73.9282 22.6237 74.2904C18.4158 75.3773 14.3908 76.4642 10 77.1888C12.9272 74.8339 15.6715 72.2978 18.7817 69.9429C19.8794 69.0372 20.0624 68.3126 19.5135 66.8635C14.3908 56.1758 19.5135 43.3145 30.6736 38.7858C31.0395 38.6047 31.5883 37.8801 32.1372 38.6047C32.5031 38.9669 32.869 39.5104 33.0519 40.0538C33.2349 40.5973 33.4178 41.1407 33.7837 41.6841C34.1496 42.5899 34.5155 43.4956 35.2474 44.039C35.6133 44.4013 35.9792 44.9448 36.1621 45.4882C36.528 47.1185 37.9916 48.0243 38.5405 49.6546Z" fill="white"/>
<path d="M35.9793 45.6694C35.4304 45.4882 35.0645 44.9448 35.0645 44.2202C34.1497 43.6768 33.6009 42.771 33.6009 41.8653C33.4179 41.3219 33.052 40.7784 32.8691 40.235C32.8691 39.6916 32.3202 39.1481 32.5032 38.6047C31.9543 34.8006 31.9543 30.9965 33.235 27.1925C36.5281 17.4106 47.5052 10.8893 58.2994 12.1573C67.264 13.2442 73.8503 17.5917 77.6923 25.7433C78.2411 26.8302 79.1559 26.8302 80.0706 27.0113C83.1808 27.3736 86.8399 27.5548 90.4989 28.0982C87.2058 29.3662 84.0956 30.8154 80.8024 32.0834C79.5218 32.6269 78.79 33.1703 78.9729 34.8006C79.1559 37.5178 78.2411 40.0538 77.1434 42.5899C76.4116 42.5899 76.5946 42.2276 76.7775 41.6842C76.7775 32.0834 68.5447 25.381 58.8482 27.0113C52.6279 28.0982 46.4075 29.3662 40.1871 30.4531C38.5406 30.8154 38.5406 31.54 38.9065 32.808C40.0042 38.6047 41.1019 44.4014 42.1996 50.198C42.1996 50.3792 42.1996 50.7415 42.1996 51.2849C41.1019 50.5603 40.1871 49.8357 39.2724 49.1111C37.4429 48.3866 36.5281 47.1185 35.9793 45.6694Z" fill="white"/>
<path d="M52.2618 77.0076C59.9457 72.8413 64.5195 66.6823 64.1536 57.9873C64.1536 54.7267 64.8854 53.0964 67.8127 52.0095C70.9229 50.7415 72.9353 47.8431 75.4966 45.6694C74.5819 47.2997 75.1307 48.0243 76.7773 48.93C79.1557 50.0169 80.8022 52.1906 81.5341 54.7267C83.9124 63.0594 81.1682 72.1167 70.7399 74.2905C64.7025 75.5585 58.6651 76.4642 52.6277 77.5511C52.0788 77.5511 52.0788 77.3699 52.2618 77.0076Z" fill="white"/>
<path d="M68.7274 37.8801C68.7274 40.235 66.8979 42.2276 64.3366 42.2276C62.1411 42.2276 60.1287 40.235 60.1287 38.0613C60.1287 35.7064 62.1411 33.7138 64.5195 33.7138C66.7149 33.7138 68.5444 35.5252 68.7274 37.8801Z" fill="white"/>
</g>
<defs>
<clipPath id="clip0_1_27">
<rect width="100" height="100" fill="white"/>
</clipPath>
</defs>
</svg>
