<svg width="19" height="34" viewBox="0 0 19 34" fill="none" xmlns="http://www.w3.org/2000/svg">
<path d="M17.6897 0.00707427L13.2807 0C8.32739 0 5.12632 3.28423 5.12632 8.36745V12.2254H0.693272C0.310204 12.2254 0 12.536 0 12.919V18.5088C0 18.8918 0.310558 19.202 0.693272 19.202H5.12632V33.3067C5.12632 33.6898 5.43652 34 5.81959 34H11.6035C11.9865 34 12.2967 33.6894 12.2967 33.3067V19.202H17.48C17.8631 19.202 18.1733 18.8918 18.1733 18.5088L18.1754 12.919C18.1754 12.7351 18.1022 12.559 17.9724 12.4288C17.8425 12.2986 17.6657 12.2254 17.4818 12.2254H12.2967V8.95496C12.2967 7.38306 12.6713 6.58508 14.7189 6.58508L17.689 6.58402C18.0717 6.58402 18.3819 6.27346 18.3819 5.89074V0.700353C18.3819 0.317988 18.0721 0.0077817 17.6897 0.00707427Z" fill="#EBFFBF"/>
</svg>
