<svg width="133" height="105" viewBox="0 0 133 105" fill="none" xmlns="http://www.w3.org/2000/svg">
<path d="M15.815 104.892H117.687C126.132 104.892 133 98.0672 133 89.6754V27.9641C133 19.5723 126.132 12.7475 117.687 12.7475H96.9003L95.0808 6.64797C94.3382 3.31034 91.2678 0.860596 87.6566 0.860596H45.843C42.3338 0.860596 39.2281 3.29772 38.4061 6.67835L38.3577 6.88631L36.699 12.7471H15.8126C7.36787 12.7471 0.5 19.5719 0.5 27.9637V89.6746C0.50238 98.0672 7.37263 104.892 15.815 104.892ZM117.687 17.8198C123.317 17.8198 127.896 22.3697 127.896 27.9641V89.675C127.896 95.2698 123.317 99.8193 117.687 99.8193H15.815C10.1849 99.8193 5.60672 95.2694 5.60672 89.675V27.9641C5.60672 22.3693 10.1853 17.8198 15.815 17.8198H40.5651L43.3595 7.91625C43.6173 6.76477 44.6612 5.93056 45.8454 5.93056H87.6594C88.8614 5.93056 89.8823 6.74701 90.1452 7.91901L93.0953 17.8198H117.687ZM66.7472 89.561C84.6092 89.561 99.1412 75.1229 99.1412 57.3753C99.1412 39.6253 84.6096 25.1872 66.7472 25.1872C48.89 25.1872 34.3608 39.6276 34.3608 57.3753C34.3612 75.1206 48.8904 89.561 66.7472 89.561ZM66.7472 30.2568C81.7946 30.2568 94.0368 42.4199 94.0368 57.3729C94.0368 72.3259 81.7942 84.4863 66.7472 84.4863C51.7026 84.4863 39.4652 72.3232 39.4652 57.3729C39.4656 42.4199 51.7054 30.2568 66.7472 30.2568ZM19.1098 27.2337C21.7128 27.2337 23.8186 29.331 23.8186 31.913C23.8186 34.4973 21.7132 36.5919 19.1098 36.5919C16.5091 36.5919 14.4037 34.4969 14.4037 31.913C14.4061 29.331 16.5119 27.2337 19.1098 27.2337Z" fill="#F7F7F7"/>
</svg>
