<svg width="50" height="50" viewBox="0 0 50 50" fill="none" xmlns="http://www.w3.org/2000/svg">
<circle cx="25" cy="25" r="25" fill="#72B62B"/>
<g clip-path="url(#clip0)">
<path d="M35.1511 28.7044C34.8209 28.7044 34.5533 28.9832 34.5533 29.3271V34.8553C34.5522 35.8866 33.7501 36.7222 32.7602 36.7232H15.9886C14.9986 36.7222 14.1966 35.8866 14.1954 34.8553V18.6302C14.1966 17.5993 14.9986 16.7636 15.9886 16.7623H21.2958C21.6259 16.7623 21.8935 16.4836 21.8935 16.1397C21.8935 15.7961 21.6259 15.5171 21.2958 15.5171H15.9886C14.3388 15.519 13.0019 16.9117 13 18.6302V34.8556C13.0019 36.5741 14.3388 37.9668 15.9886 37.9687H32.7602C34.41 37.9668 35.7469 36.5741 35.7488 34.8556V29.3271C35.7488 28.9832 35.4812 28.7044 35.1511 28.7044Z" fill="white"/>
<path d="M35.5123 13.9159C34.4618 12.8217 32.7588 12.8217 31.7083 13.9159L21.0446 25.024C20.9715 25.1001 20.9187 25.1945 20.8912 25.2981L19.4889 30.5717C19.4312 30.7879 19.4898 31.0195 19.642 31.1783C19.7945 31.3369 20.0168 31.3979 20.2243 31.3381L25.287 29.8771C25.3865 29.8484 25.4771 29.7934 25.5501 29.7173L36.2137 18.609C37.2625 17.514 37.2625 15.7415 36.2137 14.6465L35.5123 13.9159ZM22.347 25.4287L31.0744 16.3373L33.8891 19.2693L25.1614 28.3606L22.347 25.4287ZM21.7847 26.6039L24.0334 28.9465L20.9229 29.8443L21.7847 26.6039ZM35.3685 17.7285L34.7346 18.3888L31.9197 15.4566L32.5538 14.7963C33.1373 14.1885 34.0834 14.1885 34.6668 14.7963L35.3685 15.5269C35.951 16.1355 35.951 17.1202 35.3685 17.7285Z" fill="white"/>
</g>
<defs>
<clipPath id="clip0">
<rect width="24" height="25" fill="white" transform="translate(13 13)"/>
</clipPath>
</defs>
</svg>
