<svg width="24" height="34" viewBox="0 0 24 34" fill="none" xmlns="http://www.w3.org/2000/svg">
<path d="M11.8918 0C7.20416 0 3.39197 3.81219 3.39197 8.49987C3.39197 13.1876 7.20416 16.9997 11.8918 16.9997C16.5795 16.9997 20.3917 13.1876 20.3917 8.49987C20.3917 3.81219 16.5795 0 11.8918 0ZM11.8918 12.7498C9.548 12.7498 7.6419 10.8437 7.6419 8.49987C7.6419 6.15603 9.548 4.24994 11.8918 4.24994C14.2357 4.24994 16.1418 6.15603 16.1418 8.49987C16.1418 10.8437 14.2357 12.7498 11.8918 12.7498Z" fill="#EBFFBF"/>
<path d="M23.1627 16.7638C22.3318 15.9329 20.9888 15.9329 20.158 16.7638C15.602 21.3197 8.18591 21.3197 3.62785 16.7638C2.79699 15.9329 1.45401 15.9329 0.623147 16.7638C-0.207716 17.5946 -0.207716 18.9376 0.623147 19.7706C3.26661 22.4141 6.61768 23.9207 10.0729 24.3138L4.0146 30.3721C3.18373 31.2029 3.18373 32.5459 4.0146 33.3768C4.84546 34.2076 6.18844 34.2076 7.0193 33.3768L11.8919 28.5042L16.7644 33.3768C17.1788 33.7911 17.7228 33.9994 18.2668 33.9994C18.8108 33.9994 19.3547 33.7911 19.7691 33.3768C20.6 32.5459 20.6 31.2029 19.7691 30.3721L13.7108 24.3138C17.166 23.9207 20.5171 22.4141 23.1606 19.7706C23.9914 18.9397 23.9914 17.5946 23.1627 16.7638Z" fill="#EBFFBF"/>
</svg>
