<svg width="17" height="17" viewBox="0 0 17 17" fill="none" xmlns="http://www.w3.org/2000/svg">
<path d="M14.5715 0C14.2361 0 13.9643 0.271827 13.9643 0.607154V2.82503C10.8385 -0.201211 5.8513 -0.120456 2.82506 3.00532C1.39887 4.47843 0.603244 6.4496 0.607192 8.49998C0.607192 8.83531 0.879019 9.10714 1.21435 9.10714C1.54967 9.10714 1.82147 8.83531 1.82147 8.49998C1.82221 4.81152 4.81287 1.822 8.50137 1.82274C10.3746 1.8231 12.1616 2.61019 13.4264 3.99195L10.7368 4.88868C10.4182 4.99466 10.2459 5.33877 10.3519 5.65731C10.4578 5.97585 10.802 6.14821 11.1205 6.04223L14.7633 4.82796C15.012 4.74514 15.1795 4.51205 15.1786 4.24997V0.607119C15.1786 0.271827 14.9068 0 14.5715 0Z" fill="#72B62B"/>
<path d="M15.7859 7.89258C15.4505 7.89258 15.1787 8.1644 15.1787 8.49973C15.178 12.1882 12.1873 15.1777 8.49881 15.177C6.62555 15.1766 4.8386 14.3895 3.57377 13.0078L6.2634 12.111C6.58194 12.0051 6.7543 11.6609 6.64832 11.3424C6.54234 11.0239 6.19823 10.8515 5.87969 10.9575L2.23684 12.1718C1.98817 12.2546 1.82072 12.4877 1.82154 12.7497V16.3926C1.82154 16.7279 2.09336 16.9998 2.42869 16.9998C2.76402 16.9998 3.03584 16.7279 3.03584 16.3926V14.1747C6.16166 17.2009 11.1489 17.1202 14.1751 13.9944C15.6013 12.5213 16.3969 10.5501 16.393 8.49973C16.393 8.1644 16.1212 7.89258 15.7859 7.89258Z" fill="#72B62B"/>
</svg>
