<svg width="24" height="20" viewBox="0 0 24 20" fill="none" xmlns="http://www.w3.org/2000/svg">
<path fill-rule="evenodd" clip-rule="evenodd" d="M18.3839 19.7789C18.7059 20.0069 19.1209 20.0639 19.4909 19.9239C19.8609 19.7829 20.1329 19.4669 20.2149 19.0839C21.0839 14.9999 23.1919 4.6629 23.9829 0.947904C24.0429 0.667904 23.9429 0.376904 23.7229 0.189904C23.5029 0.00290415 23.1979 -0.051096 22.9259 0.049904C18.7329 1.6019 5.81991 6.4469 0.54191 8.3999C0.20691 8.5239 -0.0110904 8.8459 -9.04275e-05 9.1989C0.0119096 9.5529 0.24991 9.8599 0.59291 9.9629C2.95991 10.6709 6.06691 11.6559 6.06691 11.6559C6.06691 11.6559 7.51891 16.0409 8.27591 18.2709C8.37091 18.5509 8.58991 18.7709 8.87891 18.8469C9.16691 18.9219 9.47491 18.8429 9.68991 18.6399C10.9059 17.4919 12.7859 15.7169 12.7859 15.7169C12.7859 15.7169 16.3579 18.3359 18.3839 19.7789V19.7789ZM7.37391 11.1019L9.05291 16.6399L9.42591 13.1329C9.42591 13.1329 15.9129 7.2819 19.6109 3.9469C19.7189 3.8489 19.7339 3.6849 19.6439 3.5699C19.5549 3.4549 19.3909 3.4279 19.2679 3.5059C14.9819 6.2429 7.37391 11.1019 7.37391 11.1019Z" fill="#EBFFBF"/>
</svg>
