<svg width="39" height="22" viewBox="0 0 39 22" fill="none" xmlns="http://www.w3.org/2000/svg">
<path d="M38.1655 19.8459C38.119 19.7454 38.0757 19.662 38.0355 19.5952C37.3698 18.3917 36.0976 
16.9144 34.2198 15.163L34.1802 15.1229L34.1603 15.1032L34.1402 15.0831H34.1201C33.2678 14.2675 32.7281 
13.7192 32.5021 13.4384C32.0886 12.9036 31.996 12.3623 32.222 11.8138C32.3816 11.3994 32.9814 10.5242 34.0199 
9.18711C34.5662 8.47847 34.9988 7.91052 35.3183 7.48263C37.6225 4.40759 38.6215 2.44259 38.315 1.58687L38.196 
1.3869C38.116 1.26652 37.9096 1.15638 37.577 1.05594C37.2437 0.95571 36.8176 0.939134 36.2981 1.00593L30.5448 
1.04583C30.4516 1.01267 30.3186 1.01576 30.1452 1.05594C29.972 1.09612 29.8854 1.11628 29.8854 1.11628L29.7852 
1.1665L29.7058 1.22683C29.6391 1.26673 29.5659 1.3369 29.4859 1.4372C29.4064 1.53715 29.3398 1.65444 29.2866 
1.78811C28.6603 3.40577 27.9481 4.90979 27.1488 6.30009C26.656 7.12912 26.2035 7.84759 25.7901 8.45593C25.3774 
9.06405 25.0311 9.5121 24.7516 9.79931C24.4718 10.0868 24.2192 10.3171 23.9923 10.4911C23.7658 10.6651 23.5929 
10.7387 23.4732 10.7118C23.3532 10.6849 23.2402 10.6582 23.1332 10.6315C22.9469 10.5111 22.797 10.3474 22.684 
10.1402C22.5705 9.93297 22.4941 9.67218 22.4542 9.358C22.4144 9.04361 22.3909 8.77319 22.3842 8.54583C22.378 
8.31875 22.3808 7.99755 22.3943 7.58314C22.4082 7.16852 22.4144 6.88799 22.4144 6.74091C22.4144 6.23281 
22.4243 5.68136 22.4441 5.08644C22.4642 4.49152 22.4805 4.02015 22.4942 3.67289C22.5078 3.32528 22.5141 
2.95751 22.5141 2.56979C22.5141 2.18208 22.4905 1.87801 22.4441 1.65732C22.3982 1.43691 22.3277 1.22297 
22.2349 1.01555C22.1415 0.808349 22.0047 0.648065 21.8253 0.534279C21.6456 0.420633 21.4221 0.330446 21.1561 
0.263438C20.4502 0.103084 19.5513 0.0163392 18.459 0.00285336C15.982 -0.0238373 14.3903 0.136728 13.6845 
0.484339C13.4048 0.631207 13.1517 0.831879 12.9254 1.08572C12.6856 1.37995 12.6522 1.54052 12.8253 1.56693C13.6245 
1.6871 14.1903 1.97459 14.5233 2.4291L14.6433 2.66995C14.7366 2.84372 14.8298 3.15137 14.9231 3.59247C15.0162 
4.03356 15.0763 4.52151 15.1028 5.05603C15.1693 6.03213 15.1693 6.86769 15.1028 7.56277C15.0361 8.25813 14.9731 
8.79946 14.913 9.18718C14.8529 9.5749 14.7631 9.88907 14.6433 10.1296C14.5233 10.3703 14.4434 10.5174 14.4034 
10.5707C14.3635 10.6241 14.3302 10.6578 14.3037 10.671C14.1306 10.7376 13.9506 10.7715 13.7642 10.7715C13.5776 
10.7715 13.3513 10.6778 13.085 10.4905C12.8188 10.3033 12.5425 10.0461 12.2561 9.71846C11.9697 9.3908 11.6467 
8.93292 11.287 8.34474C10.9276 7.75656 10.5546 7.06141 10.1684 6.25929L9.84884 5.67757C9.64907 5.30334 9.37619 
4.75843 9.0299 4.04333C8.68341 3.32795 8.37715 2.63596 8.11091 1.9675C8.00448 1.68675 7.8446 1.47302 7.63154 1.32594L7.53155 
1.2656C7.46508 1.21222 7.35838 1.15554 7.212 1.09513C7.06541 1.0348 6.91245 0.991531 6.7525 0.964911L1.27878 
1.00481C0.719437 1.00481 0.339917 1.13201 0.140081 1.38606L0.0601047 1.50624C0.0201515 1.57318 0 1.68008 0 
1.82723C0 1.97431 0.0399531 2.15482 0.119929 2.36856C0.918992 4.25376 1.78796 6.07189 2.72682 7.82322C3.66568 
9.57455 4.48154 10.9853 5.1739 12.0542C5.8664 13.1238 6.57226 14.1334 7.29148 15.0823C8.01071 16.0316 8.48679 
16.6399 8.71972 16.9072C8.95293 17.1749 9.13612 17.3751 9.26927 17.5088L9.76879 17.99C10.0884 18.3109 10.5578 
18.6952 11.1771 19.143C11.7965 19.5911 12.4823 20.0322 13.2348 20.467C13.9874 20.9011 14.8629 21.2554 15.8619 
21.5294C16.8607 21.8037 17.8329 21.9138 18.7785 21.8607H21.076C21.5419 21.8203 21.8949 21.6732 22.1348 21.4194L22.2143 21.3189C22.2678 21.2391 22.3178 
21.1151 22.364 20.9483C22.4107 20.7812 22.4339 20.5971 22.4339 20.3968C22.4203 19.8221 22.4639 19.3041 22.5635 18.8429C22.6631 18.3818 22.7766 18.0342 
22.9035 17.8001C23.0304 17.5662 23.1735 17.3689 23.3328 17.2088C23.4925 17.0485 23.6063 16.9514 23.673 16.9179C23.7394 16.8843 23.7923 16.8614 23.8323
 16.8478C24.1519 16.7408 24.5281 16.8444 24.9613 17.1588C25.3942 17.473 25.8003 17.8609 26.1801 18.322C26.5597 18.7835 27.0157 19.3012 27.5484 19.8759C28.0813 
 20.4509 28.5473 20.8783 28.9467 21.1595L29.3461 21.4001C29.6128 21.5607 29.9591 21.7078 30.3854 
 21.8414C30.8109 21.975 31.1837 22.0085 31.5038 21.9417L36.6177 21.8616C37.1235 21.8616 37.5171 21.7775 37.7963 
21.6107C38.076 21.4436 38.2422 21.2595 38.2958 21.0593C38.3493 20.8588 38.3522 20.6314 38.306 20.3771C38.2586 20.1235 38.2119 19.9461 38.1655 19.8459Z" fill="#EBFFBF"/>
</svg>
