<svg width="81" height="36" viewBox="0 0 81 36" fill="none" xmlns="http://www.w3.org/2000/svg">
<path d="M34.2145 16.3771C34.0255 16.6578 33.931 17.0321 33.7419 17.3129C32.6078 19.1845 30.9065 20.4947 28.9216 21.4305C28.1655 21.8049 28.1655 22.2728 28.26 23.0214C28.8271 26.7648 25.9917 31.8182 22.5891 33.4091C22.3055 33.5027 22.1165 33.5027 21.833 33.6899C21.4549 33.8771 20.9823 33.8771 20.5097 34.0642C20.2262 34.1578 19.9426 34.2514 19.6591 34.345C18.7139 34.4386 18.7139 33.6899 18.5249 33.1284C17.9578 30.1337 17.3907 27.1391 16.8236 24.0509C16.5401 22.5535 16.351 20.9626 14.8388 20.1204C14.6498 20.0268 14.4607 19.746 14.4607 19.4653C14.4607 19.2781 14.5552 19.091 14.8388 19.091C15.2169 19.091 15.5004 19.3717 15.973 19.5589C15.5004 16.845 14.9333 14.2247 14.5552 11.6979C14.4607 11.3236 14.3662 10.8557 14.3662 10.4813C14.3662 9.91985 14.5552 9.45193 15.1223 9.35835C19.281 8.70327 23.2507 7.39311 27.5039 7.48669C30.9065 7.58027 34.4036 11.0428 34.5926 14.4118C34.5926 14.6926 34.5926 14.9733 34.4981 15.2541C34.4036 15.5348 34.4981 16.0027 34.2145 16.3771Z" fill="#70B22C"/>
<path d="M14.7445 19.4527C16.6348 20.5757 17.1074 22.3538 17.3909 24.4126C17.8635 27.5008 18.5251 30.4955 18.9977 33.4902C19.0922 34.1452 19.2812 34.3324 19.9428 34.2388C20.0373 34.3324 20.0373 34.3324 20.0373 34.426C20.0373 34.5196 20.0373 34.5196 19.9428 34.5196C15.6896 35.7361 11.72 35.1746 8.12836 32.4607C7.56126 32.0864 7.08868 31.9928 6.52159 32.18C4.34772 32.7415 2.26838 33.303 0 33.6773C1.51225 32.4607 2.92999 31.1506 4.53676 29.934C5.10385 29.4661 5.19837 29.0918 4.91482 28.3431C2.26838 22.8217 4.91482 16.1773 10.6803 13.8377C10.8693 13.7442 11.1529 13.3698 11.4364 13.7442C11.6254 13.9313 11.8145 14.2121 11.909 14.4928C12.0035 14.7736 12.098 15.0543 12.287 15.3351C12.4761 15.803 12.6651 16.2709 13.0432 16.5516C13.2322 16.7388 13.4212 17.0196 13.5158 17.3003C13.7048 18.1426 14.4609 18.6105 14.7445 19.4527Z" fill="white"/>
<path d="M13.4211 17.3941C13.1375 17.3005 12.9485 17.0198 12.9485 16.6455C12.4759 16.3647 12.1924 15.8968 12.1924 15.4289C12.0979 15.1481 11.9088 14.8674 11.8143 14.5866C11.8143 14.3059 11.5308 14.0251 11.6253 13.7444C11.3417 11.7792 11.3417 9.81391 12.0034 7.84867C13.7046 2.79519 19.3756 -0.573791 24.952 0.0812894C29.5833 0.642787 32.9858 2.88878 34.9707 7.10001C35.2542 7.6615 35.7268 7.6615 36.1994 7.75509C37.8062 7.94225 39.6965 8.03584 41.5868 8.31658C39.8855 8.97166 38.2787 9.72033 36.5774 10.3754C35.9158 10.6562 35.5378 10.9369 35.6323 11.7792C35.7268 13.1829 35.2542 14.4931 34.6871 15.8032C34.3091 15.8032 34.4036 15.616 34.4981 15.3353C34.4981 10.3754 30.2449 6.91284 25.2356 7.75509C22.022 8.31658 18.8085 8.97166 15.595 9.53316C14.7443 9.72033 14.7443 10.0947 14.9333 10.7497C15.5004 13.7444 16.0675 16.739 16.6346 19.7337C16.6346 19.8273 16.6346 20.0144 16.6346 20.2952C16.0675 19.9209 15.595 19.5465 15.1224 19.1722C14.1772 18.7979 13.7046 18.1428 13.4211 17.3941Z" fill="white"/>
<path d="M21.8339 33.5028C25.8035 31.3504 28.1664 28.1686 27.9774 23.6766C27.9774 21.9921 28.3555 21.1499 29.8677 20.5884C31.4745 19.9333 32.5142 18.436 33.8374 17.313C33.3648 18.1552 33.6483 18.5296 34.499 18.9975C35.7277 19.559 36.5783 20.682 36.9564 21.9921C38.1851 26.2969 36.7674 30.9761 31.38 32.0991C28.2609 32.7542 25.1419 33.2221 22.0229 33.7836C21.7394 33.7836 21.7394 33.69 21.8339 33.5028Z" fill="white"/>
<path d="M64.4593 29.1978C64.5538 26.9518 64.7429 24.5187 65.1209 22.1791C65.31 21.1497 65.688 20.9625 66.6332 21.1497C67.5783 21.3369 68.429 21.8048 69.4687 21.1497C70.1303 20.7754 70.8864 21.2433 71.4535 21.8984C72.7767 23.4893 72.3986 26.6711 70.7919 27.8877C70.0358 28.4492 69.1851 28.7299 68.24 28.3556C67.5783 28.0748 67.3893 28.3556 67.3893 28.9171C67.3893 29.6657 67.2948 30.3208 67.3893 31.0695C67.4838 31.8181 67.1058 31.9117 66.4442 31.8181C64.6484 31.631 64.3648 31.3502 64.4593 29.1978Z" fill="white"/>
<path d="M72.7775 24.8929C72.683 24.1442 72.872 23.302 73.3446 22.6469C73.8172 21.8046 74.6679 20.9624 75.613 21.056C77.1253 21.3367 78.6375 20.8688 80.1498 21.3367C80.8114 21.5239 81.0949 21.8046 80.9059 22.6469C80.5278 24.3314 80.2443 26.0159 80.3388 27.7004C80.3388 28.3554 80.1498 28.5426 79.4882 28.449C79.2046 28.449 78.9211 28.449 78.732 28.449C77.7869 28.2619 76.9362 28.1683 75.8966 28.3554C74.0062 28.6362 72.7775 27.2324 72.7775 24.8929Z" fill="white"/>
<path d="M39.4131 25.0801C39.4131 22.8341 40.4528 21.056 42.154 21.056C43.7608 21.056 45.3676 20.8688 46.9743 21.3368C47.5414 21.5239 47.7305 21.8047 47.5414 22.3662C47.1634 24.0507 46.8798 25.8287 46.8798 27.6068C46.8798 28.2619 46.5963 28.4491 46.0292 28.4491C45.7456 28.4491 45.4621 28.4491 45.2731 28.4491C44.3279 28.2619 43.4773 28.1683 42.4376 28.3555C40.6418 28.6362 39.4131 27.2325 39.4131 25.0801Z" fill="white"/>
<path d="M51.8893 24.706C51.4167 25.829 51.0387 26.7648 50.6606 27.7006C50.3771 28.4493 49.999 28.5429 49.4319 28.1685C49.1483 27.9814 48.7703 27.7942 48.4867 27.607C47.9196 27.2327 47.8251 26.952 48.2977 26.3905C49.2429 25.1739 49.9045 23.8637 50.2825 22.3664C50.4716 21.6177 50.8496 21.337 51.6058 21.2434C54.0632 20.8691 54.2522 20.9627 55.1028 23.2086C55.5754 24.5188 55.9535 25.829 56.3316 27.1391C56.5206 27.7942 56.3316 28.075 55.6699 28.1685C55.5754 28.1685 55.4809 28.1685 55.4809 28.2621C53.4016 28.8236 53.4961 28.8236 52.74 26.8584C52.3619 26.1097 52.1729 25.4546 51.8893 24.706Z" fill="white"/>
<path d="M60.301 26.016C60.9627 26.8583 61.7188 26.6711 62.2859 26.2968C62.853 25.9225 63.1365 26.2032 63.4201 26.6711C63.7981 27.2326 63.5146 27.4198 63.1365 27.7005C61.8133 28.7299 59.734 28.9171 58.3162 27.9813C57.0875 27.139 56.6149 25.6417 57.0875 23.8636C57.5601 22.1791 58.9778 21.0562 60.7736 21.0562C62.0968 21.0562 63.231 21.8048 63.4201 22.8342C63.7036 23.9572 62.9475 25.1738 61.7188 25.6417C61.3407 25.7353 60.8681 25.8289 60.301 26.016Z" fill="white"/>
<path d="M11.531 13.6631C11.7201 13.9438 11.8146 14.2246 11.8146 14.5989C11.7201 14.6925 11.6256 14.6925 11.6256 14.5989C11.531 14.3182 11.4365 14.0374 11.4365 13.7567C11.4365 13.6631 11.531 13.6631 11.531 13.6631Z" fill="#F5F9F1"/>
<path d="M30.3397 13.2886C30.3397 14.5052 29.3945 15.5346 28.0713 15.5346C26.9371 15.5346 25.8975 14.5052 25.8975 13.3822C25.8975 12.1656 26.9371 11.1362 28.1658 11.1362C29.3 11.1362 30.2452 12.0721 30.3397 13.2886Z" fill="white"/>
<path d="M13.4211 17.313C13.9882 17.8745 14.4608 18.436 15.0279 19.0911C14.9334 19.1846 14.8389 19.2782 14.7444 19.3718C14.2718 18.7167 13.2321 18.436 13.4211 17.313Z" fill="#E7F2DC"/>
<path d="M12.1927 15.2538C12.4763 15.7217 12.6653 16.096 12.9489 16.5639C12.0982 16.4704 12.1927 15.7217 11.9092 15.2538C12.0037 15.1602 12.0982 15.1602 12.1927 15.2538Z" fill="#F1F7EA"/>
<path d="M12.1921 15.2542C12.0976 15.2542 12.0031 15.2542 11.9085 15.2542C11.814 15.067 11.7195 14.7863 11.625 14.5991C11.7195 14.5991 11.814 14.5991 11.814 14.5991C12.0976 14.7863 12.0976 15.067 12.1921 15.2542Z" fill="#DBECC9"/>
<path d="M32.2299 26.9518C31.1903 26.9518 30.2451 26.1096 30.2451 25.0802C30.2451 24.1443 31.0958 23.2085 32.1354 23.2085C33.1751 23.2085 34.1203 24.1443 34.1203 25.1737C34.1203 26.1096 33.2696 26.9518 32.2299 26.9518Z" fill="#70B22C"/>
<path d="M69.5631 24.9864C69.4686 25.5479 69.2796 26.1094 68.5235 26.203C68.0509 26.203 67.7673 25.8287 67.8619 25.3608C67.9564 24.7993 68.0509 23.957 68.9015 23.957C69.4686 23.957 69.6576 24.4249 69.5631 24.9864Z" fill="#70B22C"/>
<path d="M77.314 24.9868C77.314 25.5483 77.125 26.2034 76.5579 26.2034C75.8963 26.2034 75.8018 25.5483 75.8018 24.8932C75.8018 24.3317 75.9908 23.6766 76.5579 23.7702C77.2195 23.7702 77.314 24.5189 77.314 24.9868Z" fill="#70B22C"/>
<path d="M42.3438 24.7997C42.4383 24.3317 42.5328 23.6767 43.1944 23.7702C43.856 23.8638 43.856 24.5189 43.856 25.174C43.856 25.6419 43.667 26.297 43.0999 26.2034C42.4383 26.1098 42.3438 25.4547 42.3438 24.7997Z" fill="#70B22C"/>
<path d="M60.3008 24.5188C60.4898 23.8637 60.6788 23.3958 61.2459 23.3022C61.435 23.3022 61.5295 23.4894 61.5295 23.583C61.435 24.2381 60.9624 24.4252 60.3008 24.5188Z" fill="#70B22C"/>
</svg>
